<svg xmlns="http://www.w3.org/2000/svg" viewBox="0 0 100.4 100.4"><path d="M50 54.1c-20.9 0-37.9 17-37.9 37.9 0 .8.7 1.5 1.5 1.5h72.7c.8 0 1.5-.7 1.5-1.5.1-20.9-16.9-37.9-37.8-37.9zm0 3c4.6 0 9.1.9 13.1 2.6L50.5 69 37 59.7c4-1.7 8.4-2.6 13-2.6zM15.2 90.5c.5-12.7 8-23.7 18.6-29.4L49.7 72c.3.2.6.3.8.3.3 0 .6-.1.9-.3l14.8-10.9c10.7 5.6 18.1 16.6 18.6 29.4H15.2zM49.4 50c12 0 21.8-9.8 21.8-21.8S61.4 6.4 49.4 6.4s-21.8 9.8-21.8 21.8c0 12.1 9.8 21.8 21.8 21.8zm0-40.5c8 0 14.8 5 17.5 12-.9-.5-2-1.1-3-1.7-4.2-2.5-7.1-4.1-9-3.9-3.8.3-6 1.8-8.4 3.3-1.3.8-2.7 1.7-4.4 2.4l-.5.2c-3.7 1.5-6 2.5-10.5 3 1.5-8.7 9.1-15.3 18.3-15.3zM30.6 27.8c5.4-.5 8.1-1.6 12-3.3l.5-.2c2-.8 3.5-1.8 4.9-2.7 2.2-1.4 4.1-2.6 7.1-2.8 1.1-.1 4.9 2.2 7.2 3.5 2.3 1.4 4.2 2.5 5.6 2.9.2 1 .3 2 .3 3 0 10.3-8.4 18.8-18.8 18.8s-18.8-8.4-18.8-18.8v-.4z"/></svg>