<svg xmlns="http://www.w3.org/2000/svg" viewBox="0 0 100.4 100.4"><path d="M32.4 45.1h.5c3.9 5.6 10.3 9.1 17.4 9.1 7.5 0 14.1-3.9 17.9-9.8 2.7-.6 5.5-4.7 6-5.6 1.6-2.7 2.3-5.1 2.3-8.2C76.5 16 64.6 4.2 50.1 4.2H50C35.4 4.2 23.5 16 23.5 30.6v5.6c0 2.4 1 4.7 2.7 6.4 1.7 1.6 3.9 2.5 6.2 2.5zm17.9 6.1c-7.1 0-13.5-4.1-16.5-10.6l1.6-1c5-3.2 10.8-6.8 14.2-10.4 5.4-5.6 9.4-9.9 10.8-11.4 5.1 3.3 8.2 9 8.2 15.2-.1 10-8.3 18.2-18.3 18.2zM26.5 30.6C26.5 17.7 37 7.2 49.9 7.2h.1c12.9 0 23.4 10.5 23.4 23.4 0 2.1-.3 4-1.8 6.6-.3.4-.6.8-.9 1.3.5-1.7.7-3.5.7-5.4 0-7.2-3.7-13.9-9.7-17.8-.7-.5-1.4-.6-2-.6-.7.1-1.1.6-1.8 1.3-1.5 1.6-5.4 5.7-10.6 11.2-3.2 3.3-9 7-13.6 9.9L32 38.2c-.6.4-1 1-1.2 1.7-.2.3-.3.8-.1 1.2v.8c-.9-.3-1.8-.8-2.5-1.5-1.1-1.1-1.8-2.6-1.8-4.2l.1-5.6zM50 57.5c-20.3 0-36.8 16.5-36.8 36.8 0 .8.7 1.5 1.5 1.5h70.7c.8 0 1.5-.7 1.5-1.5C86.8 74 70.3 57.5 50 57.5zM68.5 66C65.8 73.9 58.4 79.2 50 79.2S34.2 73.9 31.5 66c5.3-3.5 11.7-5.5 18.5-5.5s13.2 2 18.5 5.5zM16.2 92.8c.4-10.1 5.3-19.1 12.8-25 3.4 8.7 11.6 14.4 21 14.4s17.7-5.7 21-14.4c7.4 5.9 12.3 14.9 12.8 25H16.2z"/></svg>